/* XPM */
static char * freetennis_xpm[] = {
"32 32 416 2",
"  	c None",
". 	c #FEFE4F",
"+ 	c #FEFE52",
"@ 	c #FEFE56",
"# 	c #FEFE5B",
"$ 	c #FFFF61",
"% 	c #FEFE68",
"& 	c #FEFE6E",
"* 	c #FAFC48",
"= 	c #FEFE49",
"- 	c #FFFF4C",
"; 	c #FFFF4F",
"> 	c #FFFF53",
", 	c #FFFF57",
"' 	c #FFFF5E",
") 	c #FFFF65",
"! 	c #FFFF6B",
"~ 	c #FFFF74",
"{ 	c #FFFF7C",
"] 	c #FFFF85",
"^ 	c #FEFE8B",
"/ 	c #F3F544",
"( 	c #F7F946",
"_ 	c #FDFE4A",
": 	c #FFFF4D",
"< 	c #FFFF50",
"[ 	c #FFFF54",
"} 	c #FFFF59",
"| 	c #FFFF60",
"1 	c #FFFF66",
"2 	c #FFFF6F",
"3 	c #FFFF77",
"4 	c #FFFF7F",
"5 	c #FFFF89",
"6 	c #FFFF92",
"7 	c #FEFE99",
"8 	c #FEFE9E",
"9 	c #EDEF42",
"0 	c #EFF143",
"a 	c #F2F444",
"b 	c #F6F846",
"c 	c #F9FB48",
"d 	c #FFFF51",
"e 	c #FFFF55",
"f 	c #FFFF5B",
"g 	c #FFFF68",
"h 	c #FFFF71",
"i 	c #FFFF79",
"j 	c #FFFF83",
"k 	c #FFFF8C",
"l 	c #FFFF95",
"m 	c #FFFF9D",
"n 	c #FEFEA4",
"o 	c #FEFEA6",
"p 	c #E9EB40",
"q 	c #ECEE42",
"r 	c #F1F344",
"s 	c #F5F646",
"t 	c #F8FB48",
"u 	c #FCFE4A",
"v 	c #FFFE4E",
"w 	c #FFFF62",
"x 	c #FFFF6A",
"y 	c #FFFF72",
"z 	c #FFFF7B",
"A 	c #FFFF84",
"B 	c #FFFF8D",
"C 	c #FFFF97",
"D 	c #FFFF9E",
"E 	c #FFFFA4",
"F 	c #FEFEA8",
"G 	c #FFFFA9",
"H 	c #E6E840",
"I 	c #E8EA40",
"J 	c #EBED41",
"K 	c #EEF043",
"L 	c #F0F244",
"M 	c #F4F645",
"N 	c #F7F948",
"O 	c #FBFE4A",
"P 	c #FFFF4E",
"Q 	c #FFFF96",
"R 	c #FFFFA2",
"S 	c #FFFFA5",
"T 	c #FFFFA6",
"U 	c #E3E53E",
"V 	c #E5E740",
"W 	c #EAEC41",
"X 	c #F0F243",
"Y 	c #F3F545",
"Z 	c #F6F847",
"` 	c #FBFD4A",
" .	c #FEFF4D",
"..	c #FFFF69",
"+.	c #FFFF8B",
"@.	c #FFFF93",
"#.	c #FFFF9A",
"$.	c #FFFFA3",
"%.	c #FFFFA1",
"&.	c #FEFE9D",
"*.	c #E2E43E",
"=.	c #E5E73F",
"-.	c #E7E93F",
";.	c #E9EB41",
">.	c #F1F345",
",.	c #F5F747",
"'.	c #F9FB49",
").	c #FEFF50",
"!.	c #FFFF5A",
"~.	c #FFFF67",
"{.	c #FFFF80",
"].	c #FFFF87",
"^.	c #FFFF8E",
"/.	c #FFFF94",
"(.	c #FFFF9B",
"_.	c #FEFE97",
":.	c #FEFE91",
"<.	c #DFE13E",
"[.	c #E1E33E",
"}.	c #E4E63F",
"|.	c #E8EA41",
"1.	c #EBED42",
"2.	c #EDEF43",
"3.	c #F4F647",
"4.	c #FDFE4C",
"5.	c #FFFF5F",
"6.	c #FFFF6D",
"7.	c #FFFF73",
"8.	c #FFFF82",
"9.	c #FEFE8A",
"0.	c #DEE03D",
"a.	c #E0E23E",
"b.	c #E2E43F",
"c.	c #E7E940",
"d.	c #D9D542",
"e.	c #C6BC40",
"f.	c #C7BE41",
"g.	c #EDEC49",
"h.	c #FEFF4E",
"i.	c #FFFF52",
"j.	c #FFFF5C",
"k.	c #FFFF63",
"l.	c #FFFF70",
"m.	c #FFFF76",
"n.	c #FFFF86",
"o.	c #FFFF8A",
"p.	c #FEFE7C",
"q.	c #DBDD3D",
"r.	c #DDDF3C",
"s.	c #E3E53F",
"t.	c #B8AA3D",
"u.	c #FCFF46",
"v.	c #FAFD48",
"w.	c #F8F949",
"x.	c #F5F54B",
"y.	c #EFEC4D",
"z.	c #FEFE54",
"A.	c #F2F055",
"B.	c #F0ED5A",
"C.	c #FEFE64",
"D.	c #F5F36B",
"E.	c #EFEC6D",
"F.	c #FCFB79",
"G.	c #FEFE7F",
"H.	c #FFFF81",
"I.	c #FFFF7D",
"J.	c #FFFF75",
"K.	c #DADC3C",
"L.	c #DCDE3D",
"M.	c #E4E640",
"N.	c #E7E941",
"O.	c #BAAD3D",
"P.	c #D7D241",
"Q.	c #D5CF42",
"R.	c #E2DF45",
"S.	c #AD9D3E",
"T.	c #F7F64C",
"U.	c #CFC446",
"V.	c #D6CE4B",
"W.	c #EDEA55",
"X.	c #D9D252",
"Y.	c #ECE85C",
"Z.	c #C0B34C",
"`.	c #F7F66B",
" +	c #C4B850",
".+	c #FFFF78",
"++	c #FEFE6D",
"@+	c #D9DB3C",
"#+	c #DBDC3C",
"$+	c #DDDF3D",
"%+	c #B8AC3D",
"&+	c #E1E042",
"*+	c #E0DD43",
"=+	c #E0DD44",
"-+	c #CBC242",
";+	c #FCFE4C",
">+	c #B3A33F",
",+	c #CDC247",
"'+	c #C8BD48",
")+	c #C3B647",
"!+	c #D5CC4F",
"~+	c #C9BE4D",
"{+	c #C9BE4F",
"]+	c #BBAD49",
"^+	c #FFFF6E",
"/+	c #FFFF6C",
"(+	c #FEFE62",
"_+	c #D7D83B",
":+	c #D8DA3C",
"<+	c #DCDE3C",
"[+	c #E0E23D",
"}+	c #B6A93D",
"|+	c #F1F443",
"1+	c #EEF044",
"2+	c #DFDC43",
"3+	c #CAC142",
"4+	c #F9FB4A",
"5+	c #B9AB40",
"6+	c #FAF94F",
"7+	c #FCFB57",
"8+	c #DBD34E",
"9+	c #E8E457",
"0+	c #FCFB63",
"a+	c #D5D73A",
"b+	c #D7D93C",
"c+	c #D9DA3B",
"d+	c #DBDD3C",
"e+	c #DEE03E",
"f+	c #C8C13F",
"g+	c #EDF042",
"h+	c #ECEE43",
"i+	c #E4E343",
"j+	c #D8D343",
"k+	c #F6F849",
"l+	c #FAFC4B",
"m+	c #C8BE43",
"n+	c #BAAB41",
"o+	c #E9E44D",
"p+	c #D6CD4B",
"q+	c #B8A843",
"r+	c #D9D14F",
"s+	c #D4D63B",
"t+	c #D6D83A",
"u+	c #D8DA3B",
"v+	c #DFE13D",
"w+	c #E1E33F",
"x+	c #E4E53F",
"y+	c #E6E940",
"z+	c #E8E941",
"A+	c #EAEC42",
"B+	c #F2F447",
"C+	c #F5F748",
"D+	c #FBFD4B",
"E+	c #FFFF58",
"F+	c #FEFE59",
"G+	c #FFFF56",
"H+	c #D3D53A",
"I+	c #D4D73B",
"J+	c #D6D83B",
"K+	c #D9DA3C",
"L+	c #DCDF3C",
"M+	c #E5E840",
"N+	c #F0F245",
"O+	c #FBFE4C",
"P+	c #FEFE4E",
"Q+	c #FFFE50",
"R+	c #D2D439",
"S+	c #D5D73B",
"T+	c #D7D93B",
"U+	c #D9DB3B",
"V+	c #CDCB3C",
"W+	c #CCC93C",
"X+	c #CEC93E",
"Y+	c #D0CB3D",
"Z+	c #DAD93E",
"`+	c #EBED43",
" @	c #F2F446",
".@	c #F7F949",
"+@	c #FDFF4D",
"@@	c #FBFB4C",
"#@	c #DFD848",
"$@	c #FFFE4F",
"%@	c #FEFE50",
"&@	c #D1D33A",
"*@	c #D3D439",
"=@	c #D4D53A",
"-@	c #D6D73B",
";@	c #D8D93C",
">@	c #D2D03B",
",@	c #D1CF3C",
"'@	c #A18D3B",
")@	c #D5D43D",
"!@	c #DEDF3E",
"~@	c #D9D83E",
"{@	c #E7EA40",
"]@	c #E6E742",
"^@	c #ECED44",
"/@	c #EFF144",
"(@	c #F5F848",
"_@	c #ECEB46",
":@	c #FAFD49",
"<@	c #F1F149",
"[@	c #FEFF4C",
"}@	c #F7F64B",
"|@	c #F6F44B",
"1@	c #FFFE4C",
"2@	c #FFFF4B",
"3@	c #FFFF4A",
"4@	c #D1D339",
"5@	c #A2903B",
"6@	c #DEE13D",
"7@	c #B3A63C",
"8@	c #C5BE3C",
"9@	c #B1A23C",
"0@	c #E8EC40",
"a@	c #A4923B",
"b@	c #C5BC3E",
"c@	c #AE9F3C",
"d@	c #E7E742",
"e@	c #C3B93F",
"f@	c #BEB33F",
"g@	c #CCC341",
"h@	c #F1F247",
"i@	c #C7BD41",
"j@	c #E6E445",
"k@	c #C9C041",
"l@	c #F2F147",
"m@	c #FDFE49",
"n@	c #FEFF49",
"o@	c #FDFE48",
"p@	c #D0D139",
"q@	c #A3903B",
"r@	c #CBC83D",
"s@	c #B0A23B",
"t@	c #BFB63C",
"u@	c #B0A23C",
"v@	c #DBDB3E",
"w@	c #AFA13C",
"x@	c #D1CC40",
"y@	c #C4BB3E",
"z@	c #E4E342",
"A@	c #AB9A3D",
"B@	c #EFF045",
"C@	c #C8BF41",
"D@	c #E8E644",
"E@	c #B8AB3E",
"F@	c #DEDA44",
"G@	c #F8FA47",
"H@	c #F9FB47",
"I@	c #FAFC47",
"J@	c #FAFC46",
"K@	c #CFD138",
"L@	c #D0D239",
"M@	c #D5D63B",
"N@	c #D3D43C",
"O@	c #BAB03C",
"P@	c #DCDD3D",
"Q@	c #E4E73E",
"R@	c #AFA03C",
"S@	c #CCC73E",
"T@	c #D0CA3F",
"U@	c #C3BA3E",
"V@	c #E2E141",
"W@	c #AA9A3C",
"X@	c #ECED43",
"Y@	c #C6BD40",
"Z@	c #F2F545",
"`@	c #F2F445",
" #	c #DAD542",
".#	c #CBC240",
"+#	c #F5F746",
"@#	c #CED038",
"##	c #D0D23A",
"$#	c #B3A83B",
"%#	c #D9DC3C",
"&#	c #C0B93B",
"*#	c #BDB33C",
"=#	c #BFB63D",
"-#	c #E2E33E",
";#	c #D3D03E",
">#	c #D5D23F",
",#	c #CEC83E",
"'#	c #E2E240",
")#	c #C0B53E",
"!#	c #D3CD40",
"~#	c #DEDB41",
"{#	c #C2B83E",
"]#	c #EBEC43",
"^#	c #F2F544",
"/#	c #F4F644",
"(#	c #CECF39",
"_#	c #CFD139",
":#	c #DFE03D",
"<#	c #ECEE41",
"[#	c #EEF042",
"}#	c #EFF142",
"|#	c #F0F242",
"1#	c #D6D73A",
"2#	c #E1E23E",
"3#	c #CDCF39",
"4#	c #D5D63A",
"5#	c #E5E63F",
"6#	c #E6E740",
"7#	c #EAEC40",
"8#	c #CCCE39",
"9#	c #CED039",
"0#	c #E6E83F",
"a#	c #E7E83F",
"b#	c #CCCE38",
"c#	c #D2D339",
"d#	c #D4D63A",
"e#	c #CDCE39",
"f#	c #CDCF38",
"g#	c #DEDF3D",
"h#	c #CFD039",
"i#	c #DADB3B",
"                          . + @ # $ % &                         ",
"                    * = - ; > , ' ) ! ~ { ] ^                   ",
"                / ( * _ : < [ } | 1 2 3 4 5 6 7 8               ",
"            9 0 a b c _ : d e f $ g h i j k l m n o             ",
"          p q 0 r s t u v d e f w x y z A B C D E F G           ",
"        H I J K L M N O P d e f w x y z A B Q m R S F T         ",
"      U V I W 9 X Y Z `  .d e f $ ..h i j +.@.#.D R $.%.&.      ",
"      *.=.-.;.q 0 >.,.'. .).[ !.$ ~.2 3 {.].^./.#.(.m (._.:.    ",
"    <.[.}.=.|.1.2.r 3.N 4.; [ } 5.) 6.7.z 8.5 ^.6 /./.6 ^.9.    ",
"    0.a.b.=.c.;.9 d.e.f.g.h.i., j.k...l.m.{ 8.n.o.k +.o.n.8.p.  ",
"  q.r.<.[.s.H ;.q t.u.v.w.x.y.z.A.B.C.x D.E.F.G.H.8.8.4 I.i J.  ",
"  K.L.0.a.*.M.N.W O.P.Q.R.S.T.U.V.W.X.Y.Z.`. +3 .+i i 3 ~ h ++% ",
"  @+#+$+<.[.s.V |.%+&+*+=+-+;+>+,+'+)+!+~+{+]+2 2 l.2 ^+/+..1 (+",
"_+:+K.<+0.[+b.=.c.}+|+1+2+3+4+5+6+[ 7+8+9+k.0+1 ~.g ~.1 ) w 5.j.",
"a+b+c+d+$+e+a.s.=.f+g+h+i+j+k+l+m+n+o+, p+q+r+5.| $ | 5.' j.!., ",
"s+t+u+@+q.$+v+w+x+y+z+A+2.>.B+C+D+P < + [ , E+F+} !.} } E+G+[ > ",
"H+I+J+K+K.L+0.a.U }.M+|.1.2.N+B+k+4+O+P+Q+d > > [ [ [ [ > i.d < ",
"R+H+S+T+U+V+W+X+Y+Z+M.H |.`+2.N+ @3..@l++@@@#@$@< < %@; < P : : ",
"&@*@=@-@;@>@,@'@)@!@~@{@H N.]@^@/@N+(@_@:@4+<@[@}@|@: 1@- - 2@3@",
"&@4@H+S+t+u+@+5@6@7@8@9@0@a@b@c@d@e@f@e@g@h@i@j@k@g@l@_ m@n@n@o@",
"  p@&@H+I+t+;@q@r@s@t@u@v@w@V X+x@y@z@K A@B@C@D@E@F@G@G@H@I@J@J@",
"  K@L@R+=@M@J+5@N@O@P@0.Q@R@M.S@T@U@V@`+W@X@Y@Z@`@ #.#+#b b (   ",
"  @#K@##R+=@a+$#%#&#*#O@<.=#-#;#>#,#'#;.)#A+!#~#b@{#]#^#^#/#/#  ",
"    (#_###R+s+t+J+:+d+L.r.:#v+[.U =.=.c.;.;.J <#[#}#[#}#|#|#|#  ",
"    (#@#p@##R+s+1#J+:+K.q.<+e+v+2#b.s.M.H c.|.;.W J q 9 9 [#    ",
"      3#@#_###R+s+4#J+:+U+K.<+$+e+[+[.b.s.5#6#-.c.I ;.7#J       ",
"        8#9#_###R+H+I+t+T+U+K.d+r.$+v+[+[.*.U }.=.0#a#-.|.      ",
"          b#@#p@##R+H+S+J+T+U+U+q.<+$+0.<.a.[.b.U }.=.0#        ",
"            3#@#K@L@c#H+d#a+_+u+c+K.d+L.r.0.<.[+[.-#b.          ",
"              e#f#K@p@&@R+d#M@t+_+:+U+K.d+L.r.g#0.              ",
"                  f#h#K@&@R+H+s+a+_+T+:+@+i#q.L.                ",
"                      h#_#L@&@*@H+s+1#J+:+                      "};
